<svg width="324" height="225" viewBox="0 0 324 225" fill="none" xmlns="http://www.w3.org/2000/svg">
<path d="M146.82 83.32L123.268 92.6L146.82 101.88V105.848L118.98 94.712V90.488L146.82 79.288V83.32ZM170.833 61.112H174.993L153.873 121.4H149.712L170.833 61.112ZM205.07 90.488V94.712L177.23 105.848V101.88L200.782 92.6L177.23 83.32V79.288L205.07 90.488Z" fill="#00C9D8"/>
<rect x="102" y="32.5" width="120" height="120" rx="60" stroke="#F200AE" stroke-width="5"/>
<path d="M21.5477 189.2L6.82766 195L21.5477 200.8V203.28L4.14766 196.32V193.68L21.5477 186.68V189.2ZM296.446 175.32H299.046L285.846 213H283.246L296.446 175.32ZM319.845 193.68V196.32L302.445 203.28V200.8L317.165 195L302.445 189.2V186.68L319.845 193.68Z" fill="#00C9D8"/>
<path d="M30.9155 181H42.3155C45.2755 181 47.8888 181.6 50.1555 182.8C52.4221 183.973 54.1821 185.627 55.4355 187.76C56.6888 189.867 57.3155 192.28 57.3155 195C57.3155 197.72 56.6888 200.147 55.4355 202.28C54.1821 204.387 52.4221 206.04 50.1555 207.24C47.8888 208.413 45.2755 209 42.3155 209H30.9155V181ZM42.1555 206.44C44.6088 206.44 46.7555 205.96 48.5955 205C50.4355 204.013 51.8621 202.667 52.8755 200.96C53.8888 199.227 54.3955 197.24 54.3955 195C54.3955 192.76 53.8888 190.787 52.8755 189.08C51.8621 187.347 50.4355 186 48.5955 185.04C46.7555 184.053 44.6088 183.56 42.1555 183.56H33.8755V206.44H42.1555ZM83.6823 199.36H66.0823C66.2423 201.547 67.0823 203.32 68.6023 204.68C70.1223 206.013 72.0423 206.68 74.3623 206.68C75.669 206.68 76.869 206.453 77.9623 206C79.0557 205.52 80.0023 204.827 80.8023 203.92L82.4023 205.76C81.469 206.88 80.2957 207.733 78.8823 208.32C77.4957 208.907 75.9623 209.2 74.2823 209.2C72.1223 209.2 70.2023 208.747 68.5223 207.84C66.869 206.907 65.5757 205.627 64.6423 204C63.709 202.373 63.2423 200.533 63.2423 198.48C63.2423 196.427 63.6823 194.587 64.5623 192.96C65.469 191.333 66.6957 190.067 68.2423 189.16C69.8157 188.253 71.5757 187.8 73.5223 187.8C75.469 187.8 77.2157 188.253 78.7623 189.16C80.309 190.067 81.5223 191.333 82.4023 192.96C83.2823 194.56 83.7223 196.4 83.7223 198.48L83.6823 199.36ZM73.5223 190.24C71.4957 190.24 69.789 190.893 68.4023 192.2C67.0423 193.48 66.269 195.16 66.0823 197.24H81.0023C80.8157 195.16 80.029 193.48 78.6423 192.2C77.2823 190.893 75.5757 190.24 73.5223 190.24ZM108.792 187.96L99.4323 209H96.5123L87.1923 187.96H90.1523L98.0323 205.88L105.992 187.96H108.792ZM138.672 181L126.272 209H123.352L110.952 181H114.152L124.872 205.32L135.672 181H138.672ZM160.854 199.36H143.254C143.414 201.547 144.254 203.32 145.774 204.68C147.294 206.013 149.214 206.68 151.534 206.68C152.841 206.68 154.041 206.453 155.134 206C156.228 205.52 157.174 204.827 157.974 203.92L159.574 205.76C158.641 206.88 157.468 207.733 156.054 208.32C154.668 208.907 153.134 209.2 151.454 209.2C149.294 209.2 147.374 208.747 145.694 207.84C144.041 206.907 142.748 205.627 141.814 204C140.881 202.373 140.414 200.533 140.414 198.48C140.414 196.427 140.854 194.587 141.734 192.96C142.641 191.333 143.868 190.067 145.414 189.16C146.988 188.253 148.748 187.8 150.694 187.8C152.641 187.8 154.388 188.253 155.934 189.16C157.481 190.067 158.694 191.333 159.574 192.96C160.454 194.56 160.894 196.4 160.894 198.48L160.854 199.36ZM150.694 190.24C148.668 190.24 146.961 190.893 145.574 192.2C144.214 193.48 143.441 195.16 143.254 197.24H158.174C157.988 195.16 157.201 193.48 155.814 192.2C154.454 190.893 152.748 190.24 150.694 190.24ZM179.395 187.8C182.035 187.8 184.128 188.573 185.675 190.12C187.248 191.64 188.035 193.867 188.035 196.8V209H185.195V197.08C185.195 194.893 184.648 193.227 183.555 192.08C182.462 190.933 180.902 190.36 178.875 190.36C176.608 190.36 174.808 191.04 173.475 192.4C172.168 193.733 171.515 195.587 171.515 197.96V209H168.675V187.96H171.395V191.84C172.168 190.56 173.235 189.573 174.595 188.88C175.982 188.16 177.582 187.8 179.395 187.8ZM208.825 207.72C208.292 208.2 207.625 208.573 206.825 208.84C206.052 209.08 205.238 209.2 204.385 209.2C202.412 209.2 200.892 208.667 199.825 207.6C198.758 206.533 198.225 205.027 198.225 203.08V190.36H194.465V187.96H198.225V183.36H201.065V187.96H207.465V190.36H201.065V202.92C201.065 204.173 201.372 205.133 201.985 205.8C202.625 206.44 203.532 206.76 204.705 206.76C205.292 206.76 205.852 206.667 206.385 206.48C206.945 206.293 207.425 206.027 207.825 205.68L208.825 207.72ZM234.955 187.96V209H232.235V205.16C231.488 206.44 230.462 207.44 229.155 208.16C227.848 208.853 226.355 209.2 224.675 209.2C221.928 209.2 219.755 208.44 218.155 206.92C216.582 205.373 215.795 203.12 215.795 200.16V187.96H218.635V199.88C218.635 202.093 219.182 203.773 220.275 204.92C221.368 206.067 222.928 206.64 224.955 206.64C227.168 206.64 228.915 205.973 230.195 204.64C231.475 203.28 232.115 201.4 232.115 199V187.96H234.955ZM247.629 192.08C248.296 190.667 249.283 189.6 250.589 188.88C251.923 188.16 253.563 187.8 255.509 187.8V190.56L254.829 190.52C252.616 190.52 250.883 191.2 249.629 192.56C248.376 193.92 247.749 195.827 247.749 198.28V209H244.909V187.96H247.629V192.08ZM269.972 187.8C272.719 187.8 274.826 188.493 276.292 189.88C277.759 191.24 278.492 193.267 278.492 195.96V209H275.772V205.72C275.132 206.813 274.186 207.667 272.932 208.28C271.706 208.893 270.239 209.2 268.532 209.2C266.186 209.2 264.319 208.64 262.932 207.52C261.546 206.4 260.852 204.92 260.852 203.08C260.852 201.293 261.492 199.853 262.772 198.76C264.079 197.667 266.146 197.12 268.972 197.12H275.652V195.84C275.652 194.027 275.146 192.653 274.132 191.72C273.119 190.76 271.639 190.28 269.692 190.28C268.359 190.28 267.079 190.507 265.852 190.96C264.626 191.387 263.572 191.987 262.692 192.76L261.412 190.64C262.479 189.733 263.759 189.04 265.252 188.56C266.746 188.053 268.319 187.8 269.972 187.8ZM268.972 206.96C270.572 206.96 271.946 206.6 273.092 205.88C274.239 205.133 275.092 204.067 275.652 202.68V199.24H269.052C265.452 199.24 263.652 200.493 263.652 203C263.652 204.227 264.119 205.2 265.052 205.92C265.986 206.613 267.292 206.96 268.972 206.96Z" fill="#F200AE"/>
</svg>
