<svg width="200" height="116" viewBox="0 0 200 116" fill="none" xmlns="http://www.w3.org/2000/svg">
<path style="mix-blend-mode:overlay" opacity="0.43" d="M168.803 114.458H27.466L80.2953 32.9031H115.974L168.803 114.458Z" fill="url(#paint0_linear)"/>
<path d="M24.3827 91.6516L26.1741 85.562L35.5903 84.0394" stroke="#283035" stroke-linecap="round" stroke-linejoin="round"/>
<path d="M53.6909 71.1081H130.95C131.988 71.1081 132.984 71.4022 133.718 71.9258C134.452 72.4494 134.864 73.1595 134.864 73.9V110.263H49.7776V73.8998C49.7777 73.1595 50.19 72.4495 50.9239 71.926C51.6577 71.4025 52.653 71.1083 53.6909 71.1081Z" fill="#D2DCE6"/>
<path d="M53.6909 71.1081H130.95C131.988 71.1081 132.984 71.4022 133.718 71.9258C134.452 72.4494 134.864 73.1595 134.864 73.9V110.263H49.7776V73.8998C49.7777 73.1595 50.19 72.4495 50.9239 71.926C51.6577 71.4025 52.653 71.1083 53.6909 71.1081V71.1081Z" stroke="#283035" stroke-linecap="round" stroke-linejoin="round"/>
<path d="M128.46 105.741V75.7222H56.1825V105.741H128.46Z" fill="#FF5C5C"/>
<path opacity="0.3" d="M98.1343 100.952H110.028" stroke="white" stroke-linecap="round" stroke-linejoin="round"/>
<g opacity="0.3">
<path opacity="0.3" d="M127.131 91.6207C127.36 91.6104 127.587 91.6554 127.776 91.7485C127.965 91.8415 128.104 91.9771 128.171 92.1335V90.2646C127.92 90.2122 127.66 90.1852 127.398 90.1844H127.131C126.556 90.1844 126.268 90.3895 126.268 90.7999V91.0195C126.268 91.4155 126.556 91.6207 127.131 91.6207Z" fill="white"/>
<path opacity="0.3" d="M128.171 100.579C128.102 100.734 127.962 100.869 127.774 100.961C127.585 101.054 127.359 101.098 127.131 101.088C126.555 101.088 126.268 101.293 126.268 101.703V101.923C126.268 102.333 126.555 102.539 127.131 102.539H127.398C127.659 102.538 127.92 102.511 128.171 102.458V100.579Z" fill="white"/>
</g>
<path d="M128.46 105.741V75.7222H56.1825V105.741H128.46Z" stroke="#283035" stroke-linecap="round" stroke-linejoin="round"/>
<path d="M40.3889 110.287H144.254C144.497 110.287 144.729 110.356 144.901 110.478C145.072 110.601 145.169 110.767 145.169 110.94V111.721C145.169 112.587 144.687 113.417 143.829 114.029C142.971 114.641 141.807 114.984 140.594 114.984H44.0485C42.8353 114.984 41.6717 114.641 40.8139 114.029C39.956 113.417 39.474 112.587 39.474 111.721V110.94C39.474 110.767 39.5704 110.601 39.742 110.478C39.9135 110.356 40.1463 110.287 40.3889 110.287Z" fill="#E5E5E5"/>
<path d="M140.593 113.516H44.0476C42.9507 113.515 41.8905 113.233 41.0608 112.721C40.231 112.21 39.6869 111.502 39.5278 110.728C39.4933 110.796 39.4751 110.868 39.474 110.94V111.722C39.474 112.587 39.956 113.417 40.8139 114.029C41.6717 114.641 42.8353 114.985 44.0485 114.985H140.594C141.807 114.985 142.971 114.641 143.829 114.029C144.687 113.417 145.169 112.587 145.169 111.722V110.94C145.168 110.868 145.149 110.796 145.115 110.728C144.956 111.502 144.412 112.21 143.581 112.722C142.751 113.234 141.691 113.515 140.593 113.516Z" fill="#CFD1D0"/>
<path d="M40.3889 110.287H144.254C144.497 110.287 144.729 110.356 144.901 110.478C145.072 110.601 145.169 110.767 145.169 110.94V111.721C145.169 112.587 144.687 113.417 143.829 114.029C142.971 114.641 141.807 114.984 140.594 114.984H44.0485C42.8353 114.984 41.6717 114.641 40.8139 114.029C39.956 113.417 39.474 112.587 39.474 111.721V110.94C39.474 110.767 39.5704 110.601 39.742 110.478C39.9135 110.356 40.1463 110.287 40.3889 110.287Z" stroke="#283035" stroke-linecap="round" stroke-linejoin="round"/>
<path d="M82.7147 110.263H101.928C101.928 110.609 101.735 110.941 101.392 111.186C101.049 111.431 100.583 111.568 100.098 111.568H84.5445C84.0592 111.568 83.5938 111.431 83.2506 111.186C82.9074 110.941 82.7147 110.609 82.7147 110.263Z" fill="#686B6D"/>
<path d="M82.7147 110.263H101.928C101.928 110.609 101.735 110.941 101.392 111.186C101.049 111.431 100.583 111.568 100.098 111.568H84.5445C84.0592 111.568 83.5938 111.431 83.2506 111.186C82.9074 110.941 82.7147 110.609 82.7147 110.263Z" stroke="#283035" stroke-linecap="round" stroke-linejoin="round"/>
<path d="M92.1412 74.659C93.1517 74.659 93.971 74.0746 93.971 73.3538C93.971 72.633 93.1517 72.0486 92.1412 72.0486C91.1306 72.0486 90.3113 72.633 90.3113 73.3538C90.3113 74.0746 91.1306 74.659 92.1412 74.659Z" fill="#686B6D"/>
<path d="M92.1412 74.659C93.1517 74.659 93.971 74.0746 93.971 73.3538C93.971 72.633 93.1517 72.0486 92.1412 72.0486C91.1306 72.0486 90.3113 72.633 90.3113 73.3538C90.3113 74.0746 91.1306 74.659 92.1412 74.659Z" stroke="#283035" stroke-linecap="round" stroke-linejoin="round"/>
<path d="M17.7251 114.984H28.9556C29.3451 114.984 29.7214 114.882 30.0137 114.699C30.3061 114.515 30.4946 114.262 30.5438 113.986L33.5436 97.1982H13.1379L16.1379 113.986C16.1872 114.262 16.3755 114.515 16.6676 114.698C16.9597 114.882 17.3357 114.983 17.7251 114.984Z" fill="#EAD57D"/>
<path d="M16.2596 97.199L18.6397 112.703C18.6887 113.022 18.901 113.317 19.2359 113.531C19.5709 113.746 20.0049 113.864 20.4547 113.864H30.5669L30.5452 113.986C30.496 114.262 30.3075 114.516 30.0151 114.699C29.7227 114.883 29.3465 114.984 28.9569 114.984H17.7264C17.3369 114.984 16.9607 114.883 16.6684 114.699C16.3761 114.515 16.1876 114.262 16.1384 113.986L13.1379 97.199H16.2596Z" fill="#E5C66E"/>
<path d="M17.7251 114.984H28.9556C29.3451 114.984 29.7214 114.882 30.0137 114.699C30.3061 114.515 30.4946 114.262 30.5438 113.986L33.5436 97.1982H13.1379L16.1379 113.986C16.1872 114.262 16.3755 114.515 16.6676 114.698C16.9597 114.882 17.3357 114.983 17.7251 114.984V114.984Z" stroke="#283035" stroke-linecap="round" stroke-linejoin="round"/>
<path d="M32.7741 110.151L34.2249 102.032H12.4563L13.9071 110.151H32.7741Z" fill="#5CBF84"/>
<path d="M32.7741 110.151L34.2249 102.032H12.4563L13.9071 110.151H32.7741Z" fill="#4FB277"/>
<path d="M32.6842 109.213L33.9008 102.032H15.6465L16.7673 108.643C16.794 108.8 16.9004 108.945 17.0665 109.05C17.2326 109.155 17.4468 109.213 17.6687 109.213H32.6842Z" fill="#5CBF84"/>
<path d="M32.7741 110.151L34.2249 102.032H12.4563L13.9071 110.151H32.7741Z" stroke="#283035" stroke-linecap="round" stroke-linejoin="round"/>
<path d="M11.8266 97.1986H34.8544C36.2439 97.1986 37.3704 96.3951 37.3704 95.404C37.3704 94.4128 36.2439 93.6094 34.8544 93.6094H11.8266C10.437 93.6094 9.31058 94.4128 9.31058 95.404C9.31058 96.3951 10.437 97.1986 11.8266 97.1986Z" fill="#5CBF84"/>
<path d="M11.8266 97.1986H34.8544C36.2439 97.1986 37.3704 96.3951 37.3704 95.404C37.3704 94.4128 36.2439 93.6094 34.8544 93.6094H11.8266C10.437 93.6094 9.31058 94.4128 9.31058 95.404C9.31058 96.3951 10.437 97.1986 11.8266 97.1986Z" fill="#4FB277"/>
<path d="M14.4288 96.4235H35.3976C36.4871 96.4235 37.3704 95.7935 37.3704 95.0164C37.3704 94.2393 36.4871 93.6093 35.3976 93.6093H14.4288C13.3393 93.6093 12.456 94.2393 12.456 95.0164C12.456 95.7935 13.3393 96.4235 14.4288 96.4235Z" fill="#5CBF84"/>
<path d="M11.8266 97.1986H34.8544C36.2439 97.1986 37.3704 96.3951 37.3704 95.404C37.3704 94.4128 36.2439 93.6094 34.8544 93.6094H11.8266C10.437 93.6094 9.31058 94.4128 9.31058 95.404C9.31058 96.3951 10.437 97.1986 11.8266 97.1986Z" stroke="#283035" stroke-linecap="round" stroke-linejoin="round"/>
<path d="M14.1914 93.6095H32.4896L32.1275 91.6517H14.5537L14.1914 93.6095Z" fill="#5CBF84"/>
<path d="M14.5537 91.6517H19.9224L18.6516 93.6095H14.1914L14.5537 91.6517Z" fill="#54AF79"/>
<path d="M14.1914 93.6095H32.4896L32.1275 91.6517H14.5537L14.1914 93.6095Z" stroke="#283035" stroke-linecap="round" stroke-linejoin="round"/>
<path d="M147.569 115C147.579 113.75 148.282 112.554 149.524 111.673C150.767 110.792 152.447 110.298 154.199 110.298C155.951 110.298 157.632 110.792 158.874 111.673C160.117 112.554 160.82 113.75 160.83 115H147.569Z" fill="#E5E5E5"/>
<path d="M154.199 113.506C155.147 113.513 156.087 113.374 156.954 113.1C157.821 112.826 158.595 112.423 159.226 111.918C158.604 111.401 157.833 110.986 156.965 110.702C156.097 110.418 155.154 110.271 154.199 110.271C153.244 110.271 152.301 110.418 151.433 110.702C150.566 110.986 149.794 111.401 149.172 111.918C149.803 112.423 150.578 112.826 151.445 113.1C152.312 113.374 153.251 113.513 154.199 113.506Z" fill="#CFD1D0"/>
<path d="M147.569 115C147.579 113.75 148.282 112.554 149.524 111.673C150.767 110.792 152.447 110.298 154.199 110.298C155.951 110.298 157.632 110.792 158.874 111.673C160.117 112.554 160.82 113.75 160.83 115H147.569Z" stroke="#283035" stroke-linecap="round" stroke-linejoin="round"/>
<g style="mix-blend-mode:multiply" opacity="0.14">
<path d="M103.165 81.5376H68.402C67.3904 81.5376 66.5704 82.1226 66.5704 82.8441V102.093C66.5704 102.814 67.3904 103.399 68.402 103.399H103.165C104.176 103.399 104.997 102.814 104.997 102.093V82.8441C104.997 82.1226 104.176 81.5376 103.165 81.5376Z" fill="black"/>
</g>
<path d="M101.373 80.3958H66.61C65.5984 80.3958 64.7783 80.9807 64.7783 81.7022V100.951C64.7783 101.673 65.5984 102.257 66.61 102.257H101.373C102.384 102.257 103.204 101.673 103.204 100.951V81.7022C103.204 80.9807 102.384 80.3958 101.373 80.3958Z" fill="#353F49"/>
<path d="M101.373 80.3958H66.61C65.5984 80.3958 64.7783 80.9807 64.7783 81.7022V100.951C64.7783 101.673 65.5984 102.257 66.61 102.257H101.373C102.384 102.257 103.204 101.673 103.204 100.951V81.7022C103.204 80.9807 102.384 80.3958 101.373 80.3958Z" stroke="#283035" stroke-linecap="round" stroke-linejoin="round"/>
<path d="M66.6097 80.3958H101.373C101.859 80.3958 102.324 80.5334 102.668 80.7784C103.011 81.0234 103.204 81.3557 103.204 81.7022V83.6587H64.7783V81.7022C64.7783 81.3558 64.9713 81.0235 65.3147 80.7785C65.6582 80.5335 66.124 80.3958 66.6097 80.3958Z" fill="#EAEEEF"/>
<path d="M66.6097 80.3958H101.373C101.859 80.3958 102.324 80.5334 102.668 80.7784C103.011 81.0234 103.204 81.3557 103.204 81.7022V83.6587H64.7783V81.7022C64.7783 81.3558 64.9713 81.0235 65.3147 80.7785C65.6582 80.5335 66.124 80.3958 66.6097 80.3958Z" stroke="#283035" stroke-linecap="round" stroke-linejoin="round"/>
<path opacity="0.35" d="M68.057 82.537C68.4518 82.537 68.7718 82.3087 68.7718 82.0272C68.7718 81.7456 68.4518 81.5173 68.057 81.5173C67.6622 81.5173 67.3422 81.7456 67.3422 82.0272C67.3422 82.3087 67.6622 82.537 68.057 82.537Z" fill="#283035"/>
<path opacity="0.35" d="M70.3061 82.537C70.7008 82.537 71.0209 82.3087 71.0209 82.0272C71.0209 81.7456 70.7008 81.5173 70.3061 81.5173C69.9113 81.5173 69.5913 81.7456 69.5913 82.0272C69.5913 82.3087 69.9113 82.537 70.3061 82.537Z" fill="#283035"/>
<path opacity="0.35" d="M72.4405 82.537C72.8352 82.537 73.1553 82.3087 73.1553 82.0272C73.1553 81.7456 72.8352 81.5173 72.4405 81.5173C72.0457 81.5173 71.7257 81.7456 71.7257 82.0272C71.7257 82.3087 72.0457 82.537 72.4405 82.537Z" fill="#283035"/>
<path d="M66.5704 84.8008H69.0864" stroke="#46BB86" stroke-miterlimit="10"/>
<path d="M70.0009 84.8008H76.8627" stroke="#46BB86" stroke-miterlimit="10"/>
<path d="M66.5704 86.1059H76.8631" stroke="#389ABE" stroke-miterlimit="10"/>
<path d="M68.6289 87.4111H73.6609" stroke="#E5C689" stroke-miterlimit="10"/>
<path d="M74.5757 87.4111H80.0652" stroke="#F2F3F4" stroke-miterlimit="10"/>
<path d="M71.3732 88.7163H81.8946" stroke="#F2F3F4" stroke-miterlimit="10"/>
<path d="M71.3732 90.0214H79.1499" stroke="#FFA49F" stroke-miterlimit="10"/>
<path d="M68.6289 91.3266H80.0653" stroke="#F2F3F4" stroke-miterlimit="10"/>
<path d="M66.5704 92.4685H72.746" stroke="#389ABE" stroke-miterlimit="10"/>
<g opacity="0.3">
<path opacity="0.3" d="M119.78 98.7891C119.78 98.1444 119.431 97.6902 118.732 97.4117C118.239 97.2211 118.034 97.0744 118.034 96.7376V96.1665C118.034 95.7709 118.28 95.683 118.712 95.4777C119.431 95.258 119.78 94.7891 119.78 94.0856V92.8398C119.78 91.8433 120.294 91.1104 121.033 90.8028C121.587 90.5213 122.244 90.3632 122.924 90.3484H123.191C123.766 90.3484 124.054 90.5536 124.054 90.9639V91.1829C124.054 91.5785 123.766 91.7838 123.191 91.7838C122.39 91.7838 121.999 92.1941 121.999 93.0294V94.5682C122.02 94.9418 121.889 95.3116 121.623 95.6338C121.357 95.956 120.967 96.2169 120.499 96.3855L120.314 96.4294V96.4587C120.525 96.5032 120.721 96.578 120.89 96.6787C121.403 96.8982 121.999 97.4113 121.999 98.3052V100.02C121.999 100.841 122.39 101.251 123.191 101.251C123.766 101.251 124.054 101.456 124.054 101.866V102.086C124.054 102.497 123.766 102.702 123.191 102.702H122.924C122.244 102.687 121.587 102.529 121.033 102.248C120.294 101.94 119.78 101.192 119.78 100.21V98.7891Z" fill="white"/>
</g>
<path d="M16.6881 106.646L17.1456 106.329C18.8815 107.333 21.0482 107.88 23.2828 107.88C25.5173 107.88 27.6841 107.333 29.42 106.329L29.9918 106.728" stroke="#283035" stroke-linecap="round" stroke-linejoin="round"/>
<path d="M21.881 105.001C21.881 104.816 21.7778 104.639 21.5942 104.508C21.4105 104.377 21.1615 104.303 20.9018 104.303V104.303C20.6421 104.303 20.393 104.377 20.2094 104.508C20.0258 104.639 19.9226 104.816 19.9226 105.001V105.641" stroke="#283035" stroke-linecap="round" stroke-linejoin="round"/>
<path d="M24.8 105.001C24.8 104.816 24.9032 104.639 25.0868 104.508C25.2704 104.377 25.5195 104.303 25.7792 104.303V104.303C26.0389 104.303 26.2879 104.377 26.4716 104.508C26.6552 104.639 26.7584 104.816 26.7584 105.001V105.641" stroke="#283035" stroke-linecap="round" stroke-linejoin="round"/>
<path d="M184.052 93.7907H166.257C165.108 93.7907 164.176 94.4554 164.176 95.2753V113.515C164.176 114.335 165.108 115 166.257 115H184.052C185.202 115 186.133 114.335 186.133 113.515V95.2753C186.133 94.4554 185.202 93.7907 184.052 93.7907Z" fill="#E5E5E5"/>
<path d="M184.052 93.7907H183.789C183.826 93.9029 183.846 94.0179 183.846 94.1333V112.373C183.846 112.767 183.627 113.144 183.237 113.423C182.846 113.701 182.317 113.858 181.765 113.858H164.235C164.343 114.183 164.602 114.472 164.969 114.679C165.336 114.887 165.79 115 166.259 115H184.054C184.606 115 185.135 114.843 185.525 114.565C185.916 114.287 186.135 113.909 186.135 113.515V95.2753C186.135 95.0803 186.081 94.8871 185.976 94.7069C185.872 94.5268 185.718 94.363 185.525 94.2252C185.332 94.0873 185.102 93.978 184.849 93.9034C184.597 93.8289 184.326 93.7905 184.052 93.7907Z" fill="#CFD1D0"/>
<path d="M184.052 93.7907H166.257C165.108 93.7907 164.176 94.4554 164.176 95.2753V113.515C164.176 114.335 165.108 115 166.257 115H184.052C185.202 115 186.133 114.335 186.133 113.515V95.2753C186.133 94.4554 185.202 93.7907 184.052 93.7907Z" stroke="#283035" stroke-linecap="round" stroke-linejoin="round"/>
<path d="M178.814 92.5601H176.985V92.0706C176.985 91.7245 176.792 91.3925 176.449 91.1477C176.106 90.903 175.64 90.7655 175.155 90.7655C174.67 90.7655 174.204 90.903 173.861 91.1477C173.518 91.3925 173.325 91.7245 173.325 92.0706V92.5601H171.495C171.01 92.5601 170.545 92.6976 170.201 92.9424C169.858 93.1871 169.665 93.5191 169.665 93.8653C169.665 94.2114 169.858 94.5434 170.201 94.7882C170.545 95.0329 171.01 95.1704 171.495 95.1704H178.814C179.3 95.1704 179.765 95.0329 180.108 94.7882C180.452 94.5434 180.644 94.2114 180.644 93.8653C180.644 93.5191 180.452 93.1871 180.108 92.9424C179.765 92.6976 179.3 92.5601 178.814 92.5601Z" fill="#F7B66F"/>
<path d="M179.664 92.7105C179.739 92.9039 179.749 93.1069 179.695 93.3037C179.641 93.5004 179.524 93.6857 179.353 93.8449C179.183 94.0041 178.962 94.133 178.71 94.2215C178.458 94.31 178.18 94.3556 177.899 94.355H170.58C170.284 94.3551 169.992 94.3036 169.73 94.2051C169.834 94.482 170.064 94.7266 170.383 94.9012C170.702 95.0757 171.093 95.1705 171.495 95.1707H178.814C179.223 95.1704 179.62 95.0725 179.942 94.8926C180.263 94.7126 180.491 94.461 180.589 94.1779C180.687 93.8948 180.649 93.5964 180.481 93.3305C180.314 93.0645 180.026 92.8462 179.664 92.7105Z" fill="#EDA762"/>
<path d="M176.069 91.2552V91.7446H176.924C176.86 91.5683 176.746 91.4036 176.587 91.2608C176.429 91.1181 176.23 91.0006 176.005 90.9158C176.047 91.0264 176.069 91.1405 176.069 91.2552Z" fill="#EDA762"/>
<path d="M178.814 92.5601H176.985V92.0706C176.985 91.7245 176.792 91.3925 176.449 91.1477C176.106 90.903 175.64 90.7655 175.155 90.7655C174.67 90.7655 174.204 90.903 173.861 91.1477C173.518 91.3925 173.325 91.7245 173.325 92.0706V92.5601H171.495C171.01 92.5601 170.545 92.6976 170.201 92.9424C169.858 93.1871 169.665 93.5191 169.665 93.8653C169.665 94.2114 169.858 94.5434 170.201 94.7882C170.545 95.0329 171.01 95.1704 171.495 95.1704H178.814C179.3 95.1704 179.765 95.0329 180.108 94.7882C180.452 94.5434 180.644 94.2114 180.644 93.8653C180.644 93.5191 180.452 93.1871 180.108 92.9424C179.765 92.6976 179.3 92.5601 178.814 92.5601Z" stroke="#283035" stroke-linecap="round" stroke-linejoin="round"/>
<path d="M175.155 99.9017C176.207 99.9017 177.061 99.293 177.061 98.5422C177.061 97.7914 176.207 97.1827 175.155 97.1827C174.102 97.1827 173.249 97.7914 173.249 98.5422C173.249 99.293 174.102 99.9017 175.155 99.9017Z" fill="#8EAFBF"/>
<path d="M175.155 99.9017C176.207 99.9017 177.061 99.293 177.061 98.5422C177.061 97.7914 176.207 97.1827 175.155 97.1827C174.102 97.1827 173.249 97.7914 173.249 98.5422C173.249 99.293 174.102 99.9017 175.155 99.9017Z" stroke="#283035" stroke-linecap="round" stroke-linejoin="round"/>
<path d="M167.886 102.73H172.461" stroke="#283035" stroke-linecap="round" stroke-linejoin="round"/>
<path d="M167.886 107.162H172.461" stroke="#283035" stroke-linecap="round" stroke-linejoin="round"/>
<path d="M167.886 111.594H172.461" stroke="#283035" stroke-linecap="round" stroke-linejoin="round"/>
<path d="M175.483 102.555L176.676 103.687L180.245 101.773" stroke="#8BAFC1" stroke-linecap="round" stroke-linejoin="round"/>
<path d="M175.483 106.987L176.676 108.119L180.245 106.205" stroke="#8BAFC1" stroke-linecap="round" stroke-linejoin="round"/>
<path d="M188.399 102.869L186.134 103.094L188.151 113.436L190.417 113.211L188.399 102.869Z" fill="#3BBC88"/>
<path d="M188.399 102.869L186.134 103.094L188.151 113.436L190.417 113.211L188.399 102.869Z" stroke="#283035" stroke-linecap="round" stroke-linejoin="round"/>
<path d="M190.417 113.211L188.151 113.436L189.6 114.939L190.417 113.211Z" fill="#E5E5E5"/>
<path d="M190.417 113.211L188.151 113.436L189.6 114.939L190.417 113.211Z" stroke="#283035" stroke-linecap="round" stroke-linejoin="round"/>
<path d="M187.562 101.227L186.204 101.362L186.519 102.977L187.878 102.842L187.562 101.227Z" fill="#E5E5E5"/>
<path d="M187.562 101.227L186.204 101.362L186.519 102.977L187.878 102.842L187.562 101.227Z" stroke="#283035" stroke-linecap="round" stroke-linejoin="round"/>
<path d="M190.447 106.95C190.191 106.649 190.009 106.319 189.91 105.974C189.657 105.087 190.281 104.581 189.944 104.076C189.809 103.875 189.744 103.6 188.734 103.496" stroke="#283035" stroke-linecap="round" stroke-linejoin="round"/>
<path d="M193.226 115H199.116" stroke="#283035" stroke-linecap="round" stroke-linejoin="round"/>
<path d="M36.2243 115H190.653" stroke="#283035" stroke-linecap="round" stroke-linejoin="round"/>
<path d="M8.8717 115H33.5436" stroke="#283035" stroke-linecap="round" stroke-linejoin="round"/>
<path d="M1 115H6.29892" stroke="#283035" stroke-linecap="round" stroke-linejoin="round"/>
<path d="M98.1343 37.1293C101.166 37.1293 103.624 35.3762 103.624 33.2138C103.624 31.0513 101.166 29.2982 98.1343 29.2982C95.1026 29.2982 92.6449 31.0513 92.6449 33.2138C92.6449 35.3762 95.1026 37.1293 98.1343 37.1293Z" fill="white"/>
<path d="M82.376 34.0978C82.0968 34.0971 81.821 34.0543 81.5668 33.972C81.3125 33.8897 81.0856 33.7699 80.9011 33.6204C80.7165 33.471 80.5785 33.2953 80.4961 33.1051C80.4137 32.9148 80.3889 32.7142 80.4231 32.5166C81.4902 26.0547 89.0128 21.046 98.1344 21.046C107.256 21.046 114.779 26.0547 115.845 32.5166C115.88 32.7142 115.855 32.9149 115.773 33.1052C115.69 33.2955 115.552 33.4712 115.367 33.6206C115.183 33.7701 114.956 33.8899 114.702 33.9721C114.447 34.0544 114.171 34.0972 113.892 34.0978H82.376Z" fill="#F7B66F"/>
<path d="M100.879 21.2001C100.82 21.1934 100.76 21.1886 100.701 21.1824C100.493 21.1606 100.284 21.1408 100.074 21.1242C99.9781 21.1165 99.8823 21.1103 99.7862 21.1038C99.6119 21.0921 99.4374 21.0814 99.2627 21.0743C99.1611 21.07 99.0602 21.0646 98.9584 21.0612C98.6851 21.0521 98.4095 21.046 98.135 21.046C97.8606 21.046 97.5861 21.0519 97.3144 21.0612C97.1888 21.0655 97.0641 21.0725 96.9392 21.0785C96.8043 21.0852 96.6693 21.0921 96.5351 21.101C96.3704 21.1116 96.2066 21.1244 96.0433 21.1384C95.9635 21.1452 95.8832 21.1529 95.8045 21.1606C87.5649 21.9474 81.0912 26.844 80.3627 32.9478C80.3446 33.0937 80.3692 33.2407 80.435 33.3794C80.5007 33.5182 80.6062 33.6457 80.7447 33.7538C80.8832 33.8619 81.0517 33.9483 81.2395 34.0076C81.4273 34.0668 81.6304 34.0975 81.8357 34.0978H114.433C114.637 34.0982 114.839 34.0686 115.025 34.0107C115.212 33.9529 115.38 33.8681 115.519 33.7617C115.657 33.6552 115.763 33.5295 115.83 33.3924C115.898 33.2553 115.924 33.1097 115.908 32.9649C115.202 26.9552 108.928 22.1094 100.879 21.2001ZM86.4745 30.497C87.2526 28.4804 88.7045 26.6284 90.7058 25.0997C92.7072 23.571 95.1983 22.4112 97.9658 21.7197C100.736 22.4098 103.229 23.569 105.233 25.0978C107.237 26.6266 108.69 28.4793 109.469 30.497C109.568 30.7578 109.581 31.0313 109.508 31.2963C109.434 31.5613 109.276 31.8106 109.045 32.0248C108.815 32.239 108.518 32.4124 108.178 32.5314C107.838 32.6505 107.464 32.7119 107.085 32.7111H88.859C88.4802 32.712 88.1063 32.6506 87.7663 32.5316C87.4262 32.4126 87.1293 32.2392 86.8985 32.0249C86.6678 31.8107 86.5095 31.5614 86.436 31.2963C86.3624 31.0313 86.3756 30.7578 86.4745 30.497Z" fill="#EFAA65"/>
<path d="M82.3916 34.0978C82.1104 34.0972 81.8325 34.0541 81.5764 33.9713C81.3203 33.8885 81.0918 33.7679 80.9058 33.6174C80.7199 33.4669 80.5809 33.29 80.4979 33.0984C80.4149 32.9067 80.3899 32.7047 80.4245 32.5056C81.4989 26.0483 89.0183 21.046 98.1346 21.046C107.251 21.046 114.77 26.0483 115.844 32.5056C115.878 32.7047 115.853 32.9067 115.771 33.0984C115.688 33.2901 115.549 33.467 115.363 33.6175C115.177 33.7679 114.948 33.8886 114.692 33.9714C114.436 34.0542 114.158 34.0973 113.877 34.0978H82.3916Z" stroke="#283035" stroke-linecap="round" stroke-linejoin="round"/>
<path d="M98.1343 0V21.046" stroke="#283035" stroke-linejoin="round"/>
<defs>
<linearGradient id="paint0_linear" x1="98.1344" y1="31.769" x2="98.1344" y2="117.336" gradientUnits="userSpaceOnUse">
<stop stop-color="white"/>
<stop offset="0.093" stop-color="white" stop-opacity="0.864"/>
<stop offset="0.284" stop-color="white" stop-opacity="0.605"/>
<stop offset="0.466" stop-color="white" stop-opacity="0.389"/>
<stop offset="0.633" stop-color="white" stop-opacity="0.221"/>
<stop offset="0.784" stop-color="white" stop-opacity="0.1"/>
<stop offset="0.911" stop-color="white" stop-opacity="0.026"/>
<stop offset="1" stop-color="white" stop-opacity="0"/>
</linearGradient>
</defs>
</svg>
